<svg width="155" height="29" viewBox="0 0 155 29" fill="none" xmlns="http://www.w3.org/2000/svg">
<g clip-path="url(#clip0_2008_331)">
<path d="M46.9979 22.721C45.3896 22.721 43.9317 22.3767 42.624 21.6882C41.3314 20.9847 40.3094 20.0193 39.5579 18.7919C38.8214 17.5496 38.4531 16.1501 38.4531 14.5935C38.4531 13.0368 38.8214 11.6448 39.5579 10.4175C40.3094 9.17516 41.3314 8.20974 42.624 7.52123C43.9317 6.81775 45.3971 6.466 47.0204 6.466C48.3882 6.466 49.6206 6.70549 50.7179 7.18445C51.8301 7.66342 52.762 8.35194 53.5135 9.25L51.1688 11.4054C50.1016 10.178 48.7789 9.56433 47.2008 9.56433C46.2238 9.56433 45.352 9.78136 44.5855 10.2154C43.8189 10.6345 43.2177 11.2257 42.7819 11.9891C42.361 12.7525 42.1506 13.6206 42.1506 14.5935C42.1506 15.5664 42.361 16.4345 42.7819 17.1979C43.2177 17.9612 43.8189 18.5599 44.5855 18.994C45.352 19.4131 46.2238 19.6226 47.2008 19.6226C48.7789 19.6226 50.1016 19.0015 51.1688 17.7592L53.5135 19.9145C52.762 20.8275 51.8301 21.5235 50.7179 22.0025C49.6056 22.4815 48.3656 22.721 46.9979 22.721ZM59.0912 11.9666C59.5121 11.3829 60.0757 10.9414 60.7821 10.642C61.5036 10.3426 62.3303 10.193 63.2621 10.193V13.426C62.8714 13.3961 62.6083 13.3811 62.4731 13.3811C61.466 13.3811 60.6769 13.6655 60.1058 14.2343C59.5346 14.7881 59.2491 15.6263 59.2491 16.7488V22.4515H55.732V10.3726H59.0912V11.9666ZM77.811 10.3726L72.3325 23.1925C71.7763 24.5845 71.0849 25.5648 70.2583 26.1336C69.4466 26.7024 68.4622 26.9868 67.3048 26.9868C66.6736 26.9868 66.0498 26.8895 65.4336 26.6949C64.8173 26.5003 64.3138 26.2309 63.923 25.8866L65.2081 23.3945C65.4786 23.634 65.7868 23.8211 66.1325 23.9558C66.4932 24.0905 66.8464 24.1579 67.1921 24.1579C67.6731 24.1579 68.0639 24.0381 68.3645 23.7986C68.6651 23.5741 68.9356 23.1925 69.1761 22.6536L69.2212 22.5414L63.9681 10.3726H67.5979L71.0023 18.5674L74.4292 10.3726H77.811ZM86.4156 10.193C87.5428 10.193 88.5649 10.4549 89.4818 10.9788C90.4136 11.4877 91.1426 12.2136 91.6687 13.1566C92.1947 14.0846 92.4578 15.1697 92.4578 16.4121C92.4578 17.6544 92.1947 18.747 91.6687 19.69C91.1426 20.618 90.4136 21.3439 89.4818 21.8678C88.5649 22.3767 87.5428 22.6312 86.4156 22.6312C84.8675 22.6312 83.65 22.1447 82.7632 21.1718V26.8072H79.2461V10.3726H82.6054V11.7646C83.4771 10.7168 84.7472 10.193 86.4156 10.193ZM85.8069 19.7574C86.7087 19.7574 87.4452 19.458 88.0163 18.8593C88.6025 18.2456 88.8956 17.4299 88.8956 16.4121C88.8956 15.3943 88.6025 14.586 88.0163 13.9873C87.4452 13.3736 86.7087 13.0668 85.8069 13.0668C84.905 13.0668 84.161 13.3736 83.5749 13.9873C83.0037 14.586 82.7181 15.3943 82.7181 16.4121C82.7181 17.4299 83.0037 18.2456 83.5749 18.8593C84.161 19.458 84.905 19.7574 85.8069 19.7574ZM102.635 21.8678C102.29 22.1223 101.861 22.3168 101.35 22.4515C100.854 22.5713 100.328 22.6312 99.7721 22.6312C98.3292 22.6312 97.2094 22.2645 96.4128 21.531C95.6312 20.7976 95.2404 19.7199 95.2404 18.298V13.3362H93.3693V10.642H95.2404V7.70084H98.7575V10.642H101.779V13.3362H98.7575V18.2531C98.7575 18.762 98.8853 19.1586 99.1408 19.443C99.4113 19.7125 99.7871 19.8472 100.268 19.8472C100.824 19.8472 101.298 19.6975 101.688 19.3981L102.635 21.8678ZM112.169 21.8678C111.824 22.1223 111.395 22.3168 110.884 22.4515C110.388 22.5713 109.862 22.6312 109.306 22.6312C107.863 22.6312 106.743 22.2645 105.947 21.531C105.165 20.7976 104.774 19.7199 104.774 18.298V13.3362H102.903V10.642H104.774V7.70084H108.291V10.642H111.313V13.3362H108.291V18.2531C108.291 18.762 108.419 19.1586 108.675 19.443C108.945 19.7125 109.321 19.8472 109.802 19.8472C110.358 19.8472 110.832 19.6975 111.222 19.3981L112.169 21.8678ZM119.541 22.6312C118.263 22.6312 117.113 22.3692 116.091 21.8454C115.084 21.3065 114.295 20.5656 113.724 19.6226C113.153 18.6797 112.867 17.6095 112.867 16.4121C112.867 15.2146 113.153 14.1445 113.724 13.2015C114.295 12.2585 115.084 11.5251 116.091 11.0012C117.113 10.4624 118.263 10.193 119.541 10.193C120.818 10.193 121.961 10.4624 122.968 11.0012C123.975 11.5251 124.764 12.2585 125.335 13.2015C125.906 14.1445 126.192 15.2146 126.192 16.4121C126.192 17.6095 125.906 18.6797 125.335 19.6226C124.764 20.5656 123.975 21.3065 122.968 21.8454C121.961 22.3692 120.818 22.6312 119.541 22.6312ZM119.541 19.7574C120.442 19.7574 121.179 19.458 121.75 18.8593C122.336 18.2456 122.629 17.4299 122.629 16.4121C122.629 15.3943 122.336 14.586 121.75 13.9873C121.179 13.3736 120.442 13.0668 119.541 13.0668C118.639 13.0668 117.895 13.3736 117.309 13.9873C116.722 14.586 116.429 15.3943 116.429 16.4121C116.429 17.4299 116.722 18.2456 117.309 18.8593C117.895 19.458 118.639 19.7574 119.541 19.7574ZM135.711 10.193C136.839 10.193 137.861 10.4549 138.778 10.9788C139.709 11.4877 140.438 12.2136 140.964 13.1566C141.491 14.0846 141.754 15.1697 141.754 16.4121C141.754 17.6544 141.491 18.747 140.964 19.69C140.438 20.618 139.709 21.3439 138.778 21.8678C137.861 22.3767 136.839 22.6312 135.711 22.6312C134.163 22.6312 132.946 22.1447 132.059 21.1718V26.8072H128.542V10.3726H131.901V11.7646C132.773 10.7168 134.043 10.193 135.711 10.193ZM135.103 19.7574C136.004 19.7574 136.741 19.458 137.312 18.8593C137.898 18.2456 138.191 17.4299 138.191 16.4121C138.191 15.3943 137.898 14.586 137.312 13.9873C136.741 13.3736 136.004 13.0668 135.103 13.0668C134.201 13.0668 133.457 13.3736 132.871 13.9873C132.3 14.586 132.014 15.3943 132.014 16.4121C132.014 17.4299 132.3 18.2456 132.871 18.8593C133.457 19.458 134.201 19.7574 135.103 19.7574ZM148.189 22.6312C147.182 22.6312 146.198 22.5114 145.236 22.2719C144.274 22.0175 143.507 21.7032 142.936 21.329L144.109 18.8144C144.65 19.1586 145.304 19.443 146.07 19.6675C146.837 19.8771 147.588 19.9819 148.325 19.9819C149.813 19.9819 150.557 19.6152 150.557 18.8817C150.557 18.5375 150.354 18.2905 149.948 18.1408C149.542 17.9912 148.918 17.8639 148.077 17.7592C147.085 17.6095 146.265 17.4374 145.619 17.2428C144.973 17.0482 144.409 16.7039 143.928 16.21C143.462 15.7161 143.229 15.0126 143.229 14.0996C143.229 13.3362 143.447 12.6626 143.883 12.0789C144.334 11.4802 144.98 11.0162 145.822 10.6869C146.679 10.3576 147.686 10.193 148.843 10.193C149.7 10.193 150.549 10.2903 151.391 10.4848C152.248 10.6645 152.954 10.9189 153.51 11.2482L152.338 13.7403C151.271 13.1416 150.106 12.8423 148.843 12.8423C148.092 12.8423 147.528 12.947 147.152 13.1566C146.777 13.3661 146.589 13.6356 146.589 13.9648C146.589 14.339 146.792 14.601 147.197 14.7506C147.603 14.9003 148.249 15.0425 149.136 15.1772C150.128 15.3419 150.94 15.5215 151.571 15.7161C152.202 15.8957 152.751 16.2325 153.217 16.7264C153.683 17.2203 153.916 17.9088 153.916 18.7919C153.916 19.5403 153.69 20.2064 153.24 20.7901C152.789 21.3739 152.127 21.8304 151.256 22.1597C150.399 22.474 149.377 22.6312 148.189 22.6312Z" fill="#0067C2"/>
<path d="M31.4705 13.0969C31.4705 12.3219 30.8397 11.6937 30.0614 11.6937C29.2832 11.6937 28.6523 12.3219 28.6523 13.0969V15.9033C28.6523 16.6783 29.2832 17.3066 30.0614 17.3066C30.8397 17.3066 31.4705 16.6783 31.4705 15.9033V13.0969Z" stroke="#E83E8C"/>
<path d="M25.8338 7.48379C25.8338 6.70881 25.2029 6.08057 24.4247 6.08057C23.6465 6.08057 23.0156 6.70881 23.0156 7.48379V21.5161C23.0156 22.291 23.6465 22.9193 24.4247 22.9193C25.2029 22.9193 25.8338 22.291 25.8338 21.5161V7.48379Z" stroke="#E83E8C"/>
<path d="M20.1971 1.87106C20.1971 1.09608 19.5662 0.467834 18.788 0.467834C18.0098 0.467834 17.3789 1.09608 17.3789 1.87106V27.1291C17.3789 27.9041 18.0098 28.5324 18.788 28.5324C19.5662 28.5324 20.1971 27.9041 20.1971 27.1291V1.87106Z" stroke="#E83E8C"/>
<path d="M12.6836 1.87103L2.03246 12.4778C0.91718 13.5884 0.934284 15.3943 2.0704 16.4839L12.6836 26.6614" stroke="#0067C2" stroke-width="2.5" stroke-linecap="round"/>
</g>
<defs>
<clipPath id="clip0_2008_331">
<rect width="155" height="29" fill="white"/>
</clipPath>
</defs>
</svg>
