<svg width="16" height="16" viewBox="0 0 16 16" fill="none" xmlns="http://www.w3.org/2000/svg">
<path d="M11.4667 8C9.55207 8 8 9.55207 8 11.4667C8 13.3813 9.55207 14.9333 11.4667 14.9333C13.3813 14.9333 14.9333 13.3813 14.9333 11.4667C14.9311 9.553 13.3803 8.0022 11.4667 8ZM11.4667 14.4C9.84663 14.4 8.53333 13.0867 8.53333 11.4667C8.53333 9.84663 9.84663 8.53333 11.4667 8.53333C13.0867 8.53333 14.4 9.84663 14.4 11.4667C14.3981 13.0859 13.0859 14.3981 11.4667 14.4Z" fill="black"/>
<path d="M13.0672 10.4001C13.0672 9.95827 12.709 9.6001 12.2672 9.6001H12.0005V9.06677H11.4672V9.6001H11.2027L11.2069 9.0689L10.6736 9.06464L10.6693 9.6001H9.86719V10.1334H10.4005V12.8001H9.86719V13.3334H10.6693L10.6736 13.8689L11.2069 13.8646L11.2027 13.3334H11.4672V13.8668H12.0005V13.3334H12.2672C12.709 13.3334 13.0672 12.9753 13.0672 12.5334V12.0001C13.0665 11.8027 12.9924 11.6125 12.8592 11.4668C12.9924 11.321 13.0665 11.1309 13.0672 10.9334V10.4001ZM12.5339 12.5334C12.5339 12.6807 12.4145 12.8001 12.2672 12.8001H10.9339V11.7334H12.2672C12.4145 11.7334 12.5339 11.8528 12.5339 12.0001V12.5334ZM12.5339 10.9334C12.5339 11.0807 12.4145 11.2001 12.2672 11.2001H10.9339V10.1334H12.2672C12.4145 10.1334 12.5339 10.2528 12.5339 10.4001V10.9334Z" fill="black"/>
<path d="M11.4669 6.93329C8.96323 6.93329 6.93359 8.96292 6.93359 11.4666C6.93359 13.9703 8.96323 16 11.4669 16C13.9706 16 16.0003 13.9703 16.0003 11.4666C15.9975 8.96409 13.9695 6.93609 11.4669 6.93329ZM11.4669 15.4666C9.25779 15.4666 7.46693 13.6758 7.46693 11.4666C7.46693 9.25749 9.25779 7.46662 11.4669 7.46662C13.6761 7.46662 15.4669 9.25749 15.4669 11.4666C15.4644 13.6747 13.675 15.4641 11.4669 15.4666Z" fill="black"/>
<path d="M4.53307 1.06671C2.61847 1.06671 1.06641 2.61878 1.06641 4.53338C1.06641 6.44798 2.61847 8.00004 4.53307 8.00004C6.44674 7.99784 7.99754 6.44704 7.99974 4.53338C7.99974 2.61878 6.44767 1.06671 4.53307 1.06671ZM4.53307 7.46671C2.91384 7.46481 1.60164 6.15261 1.59974 4.53338C1.59974 2.91334 2.91304 1.60004 4.53307 1.60004C6.15311 1.60004 7.46641 2.91334 7.46641 4.53338C7.46641 6.15341 6.15311 7.46671 4.53307 7.46671Z" fill="black"/>
<path d="M4.53333 0C2.02963 0 0 2.02963 0 4.53333C0 7.03703 2.02963 9.06667 4.53333 9.06667C7.03587 9.06387 9.06387 7.03587 9.06667 4.53333C9.06667 2.02963 7.03703 0 4.53333 0ZM4.53333 8.53333C2.32523 8.53083 0.535833 6.74143 0.533333 4.53333C0.533333 2.3242 2.3242 0.533333 4.53333 0.533333C6.74247 0.533333 8.53333 2.3242 8.53333 4.53333C8.53333 6.74247 6.74247 8.53333 4.53333 8.53333Z" fill="black"/>
<path d="M4.53255 4.26676C4.09895 4.26676 3.73255 4.02249 3.73255 3.73342C3.73255 3.44436 4.09895 3.20009 4.53255 3.20009C4.96615 3.20009 5.33255 3.44436 5.33255 3.73342C5.33255 3.88069 5.45195 4.00009 5.59922 4.00009C5.74649 4.00009 5.86589 3.88069 5.86589 3.73342C5.86589 3.21822 5.40695 2.78756 4.79922 2.68836V2.13342H4.26589V2.68836C3.65815 2.78756 3.19922 3.21822 3.19922 3.73342C3.19922 4.32169 3.79735 4.80009 4.53255 4.80009C4.96615 4.80009 5.33255 5.04436 5.33255 5.33342C5.33255 5.62249 4.96615 5.86676 4.53255 5.86676C4.09895 5.86676 3.73255 5.62249 3.73255 5.33342C3.73255 5.18616 3.61315 5.06676 3.46589 5.06676C3.31862 5.06676 3.19922 5.18616 3.19922 5.33342C3.19922 5.84862 3.65815 6.27929 4.26589 6.37849V6.93342H4.79922V6.37849C5.40695 6.27929 5.86589 5.84862 5.86589 5.33342C5.86589 4.74516 5.26775 4.26676 4.53255 4.26676Z" fill="black"/>
<path d="M11.4664 2.66661H10.2435L10.9195 1.99035L10.5424 1.61328L9.22266 2.93328L10.5424 4.25328L10.9195 3.87621L10.2435 3.19995H11.4664C12.7913 3.20141 13.8649 4.27508 13.8664 5.59995V6.93328H14.3997V5.59995C14.3978 3.98071 13.0856 2.66851 11.4664 2.66661Z" fill="black"/>
<path d="M5.19223 11.7467L4.81516 12.1238L5.49116 12.8H4.5349C3.21003 12.7986 2.13636 11.7249 2.1349 10.4V9.06671H1.60156V10.4C1.60346 12.0193 2.91566 13.3315 4.5349 13.3334H5.49116L4.81516 14.0096L5.19223 14.3867L6.51196 13.0667L5.19223 11.7467Z" fill="black"/>
</svg>
