<svg width="16" height="16" viewBox="0 0 16 16" fill="none" xmlns="http://www.w3.org/2000/svg">
<g clip-path="url(#clip0_1440_48)">
<path d="M6.13411 3.46674C5.98685 3.46674 5.86745 3.58614 5.86745 3.7334V5.06674H5.06745C4.92018 5.06674 4.80078 5.18614 4.80078 5.3334V12.2667C4.80078 12.414 4.92018 12.5334 5.06745 12.5334H5.86745V13.6001C5.86745 13.7473 5.98685 13.8667 6.13411 13.8667C6.28138 13.8667 6.40078 13.7473 6.40078 13.6001V12.5334H7.20078C7.34805 12.5334 7.46745 12.414 7.46745 12.2667V5.3334C7.46745 5.18614 7.34805 5.06674 7.20078 5.06674H6.40078V3.7334C6.40078 3.58614 6.28138 3.46674 6.13411 3.46674ZM6.93411 5.60007V12.0001H5.33411V5.60007H6.93411Z" fill="black"/>
<path d="M9.86849 2.39996C9.72122 2.39996 9.60182 2.51936 9.60182 2.66663V3.99996H8.80182C8.65456 3.99996 8.53516 4.11936 8.53516 4.26663V11.2C8.53516 11.3472 8.65456 11.4666 8.80182 11.4666H9.60182V12.5333C9.60182 12.6806 9.72122 12.8 9.86849 12.8C10.0158 12.8 10.1352 12.6806 10.1352 12.5333V11.4666H10.9352C11.0824 11.4666 11.2018 11.3472 11.2018 11.2V4.26663C11.2018 4.11936 11.0824 3.99996 10.9352 3.99996H10.1352V2.66663C10.1352 2.51936 10.0158 2.39996 9.86849 2.39996ZM10.6685 4.5333V10.9333H9.06849V4.5333H10.6685Z" fill="black"/>
<path d="M13.599 5.60004C13.4517 5.60004 13.3323 5.71944 13.3323 5.8667V7.20004H12.5323C12.385 7.20004 12.2656 7.31944 12.2656 7.4667V14.4C12.2656 14.5473 12.385 14.6667 12.5323 14.6667H13.3323V15.7334C13.3323 15.8806 13.4517 16 13.599 16C13.7462 16 13.8656 15.8806 13.8656 15.7334V14.6667H14.6656C14.8129 14.6667 14.9323 14.5473 14.9323 14.4V7.4667C14.9323 7.31944 14.8129 7.20004 14.6656 7.20004H13.8656V5.8667C13.8656 5.71944 13.7462 5.60004 13.599 5.60004ZM14.399 7.73337V14.1334H12.799V7.73337H14.399Z" fill="black"/>
<path d="M2.39974 0C2.25247 0 2.13307 0.119401 2.13307 0.266667V1.6H1.33307C1.18581 1.6 1.06641 1.7194 1.06641 1.86667V8.8C1.06641 8.94726 1.18581 9.06667 1.33307 9.06667H2.13307V10.1333C2.13307 10.2806 2.25247 10.4 2.39974 10.4C2.54701 10.4 2.66641 10.2806 2.66641 10.1333V9.06667H3.46641C3.61367 9.06667 3.73307 8.94726 3.73307 8.8V1.86667C3.73307 1.7194 3.61367 1.6 3.46641 1.6H2.66641V0.266667C2.66641 0.119401 2.54701 0 2.39974 0ZM3.19974 2.13333V8.53333H1.59974V2.13333H3.19974Z" fill="black"/>
</g>
<defs>
<clipPath id="clip0_1440_48">
<rect width="16" height="16" fill="white"/>
</clipPath>
</defs>
</svg>
