<svg width="16" height="16" viewBox="0 0 16 16" fill="none" xmlns="http://www.w3.org/2000/svg">
<g clip-path="url(#clip0_1440_129)">
<path d="M11.6812 8.72852H4.31697C3.6587 8.72852 3.125 9.26222 3.125 9.92035C3.125 10.5786 3.6587 11.1123 4.31697 11.1123H11.6812C12.3395 11.1123 12.8731 10.5786 12.8731 9.92035C12.8731 9.26222 12.3395 8.72852 11.6812 8.72852ZM11.6812 10.6871H4.31697C3.89344 10.6871 3.55019 10.3439 3.55019 9.92035C3.55019 9.49696 3.89344 9.15371 4.31697 9.15371H11.6812C12.1046 9.15371 12.4479 9.49696 12.4479 9.92035C12.4479 10.3439 12.1046 10.6871 11.6812 10.6871Z" fill="black"/>
<path d="M5.06025 9.51184H5.45195C5.56945 9.51184 5.66454 9.60707 5.66454 9.72444V10.1163C5.66454 10.2336 5.56945 10.3289 5.45195 10.3289H5.06025C4.94288 10.3289 4.84766 10.2336 4.84766 10.1163V9.72444C4.84766 9.60707 4.94288 9.51184 5.06025 9.51184Z" fill="black"/>
<path d="M10.5446 9.51184H10.9363C11.0538 9.51184 11.1489 9.60707 11.1489 9.72444V10.1163C11.1489 10.2336 11.0538 10.3289 10.9363 10.3289H10.5446C10.4273 10.3289 10.332 10.2336 10.332 10.1163V9.72444C10.332 9.60707 10.4273 9.51184 10.5446 9.51184Z" fill="black"/>
<path d="M14.3029 7.82422H14.1666V4.46962C14.6636 4.36097 14.9989 3.89536 14.9443 3.38962C14.8897 2.88388 14.4628 2.50049 13.954 2.50049C13.4454 2.50049 13.0184 2.88388 12.9639 3.38962C12.9092 3.89536 13.2445 4.36097 13.7414 4.46962V7.82422H13.6678C13.171 6.21564 11.6851 5.11792 10.0016 5.11585H5.99833C4.31487 5.11792 2.82892 6.21564 2.33231 7.82422H1.69716C0.758615 7.82851 0 8.59044 0 9.52899C0 10.4675 0.758615 11.2296 1.69716 11.2339H2.47695C3.08429 12.6387 4.46781 13.5489 5.99833 13.5504H10.0016C11.5322 13.5489 12.9157 12.6387 13.523 11.2339H14.3029C15.2415 11.2296 16 10.4675 16 9.52899C16 8.59044 15.2415 7.82851 14.3029 7.82422ZM13.3832 3.49661C13.3832 3.18132 13.6389 2.92582 13.9542 2.92582C14.2693 2.92582 14.525 3.18132 14.525 3.49661C14.5248 3.8119 14.2693 4.06741 13.954 4.06741C13.639 4.06713 13.3836 3.81177 13.3832 3.49661ZM1.69716 10.8087C0.992939 10.805 0.424082 10.2331 0.424082 9.52899C0.424082 8.82491 0.992939 8.25301 1.69716 8.24941H2.22782C2.18477 8.48069 2.16318 8.71556 2.16318 8.95086V9.71543C2.16304 10.0857 2.2166 10.454 2.32221 10.8087H1.69716ZM10.0016 13.1252H5.99833C4.11598 13.1232 2.59058 11.5978 2.58837 9.71543V8.95086C2.59058 7.06851 4.11598 5.54311 5.99833 5.54104H10.0016C11.884 5.54311 13.4094 7.06851 13.4116 8.95086V9.71543C13.4094 11.5978 11.884 13.1232 10.0016 13.1252ZM14.3029 10.8087H13.6778C13.7834 10.4538 13.8369 10.0857 13.8368 9.71543V8.95086C13.8368 8.71556 13.8152 8.48069 13.7722 8.24927H14.3029C15.007 8.25301 15.5759 8.82491 15.5759 9.52899C15.5759 10.2331 15.007 10.805 14.3029 10.8087Z" fill="black"/>
</g>
<defs>
<clipPath id="clip0_1440_129">
<rect width="16" height="16" fill="white"/>
</clipPath>
</defs>
</svg>
