<svg width="24" height="23" viewBox="0 0 24 23" fill="none" xmlns="http://www.w3.org/2000/svg">
<path d="M21.9963 0.707642H1.97919C1.29378 0.708036 0.738144 1.24078 0.738281 1.8979V21.0809C0.738693 21.7378 1.2946 22.2703 1.98029 22.2701H12.7573V13.9315H9.83496V10.6677H12.7573V8.2657C12.7573 5.48024 14.5318 3.96413 17.1245 3.96413C18.3664 3.96413 19.4336 4.05283 19.7446 4.09244V7.00372H17.9567C16.5461 7.00372 16.2729 7.6461 16.2729 8.58893V10.6677H19.6458L19.2063 13.9315H16.2729V22.2701H21.9963C22.6821 22.2703 23.2381 21.7377 23.2383 21.0804C23.2383 21.0803 23.2383 21.0801 23.2383 21.0799V1.89684C23.238 1.23999 22.682 0.70751 21.9963 0.707642Z" fill="black"/>
</svg>
