<svg width="16" height="16" viewBox="0 0 16 16" fill="none" xmlns="http://www.w3.org/2000/svg">
<path d="M1.25005 9.65625C1.28387 9.65624 1.31733 9.64935 1.34839 9.636L2.44893 9.16434C2.55114 9.27542 2.6845 9.35304 2.83157 9.38706C2.97863 9.42108 3.13254 9.4099 3.27314 9.35499C3.41375 9.30009 3.5345 9.20401 3.61959 9.07933C3.70469 8.95466 3.75016 8.8072 3.75005 8.65625C3.75005 8.64603 3.74968 8.63594 3.74927 8.62581L4.93677 8.15081C5.03726 8.26553 5.17037 8.34687 5.3183 8.38395C5.46624 8.42104 5.62196 8.41211 5.76469 8.35836C5.90742 8.30461 6.03035 8.2086 6.11708 8.08315C6.2038 7.95769 6.25019 7.80876 6.25005 7.65625C6.25005 7.64603 6.24968 7.63594 6.24927 7.62581L7.43677 7.15081C7.51075 7.23529 7.60278 7.30204 7.70605 7.34614C7.80932 7.39023 7.92118 7.41053 8.03336 7.40554C8.14554 7.40055 8.25516 7.37039 8.3541 7.31729C8.45304 7.2642 8.53878 7.18953 8.60496 7.09881L9.75083 7.44256C9.75606 7.55257 9.78545 7.66008 9.83692 7.75745C9.88839 7.85481 9.96067 7.93965 10.0486 8.00593C10.1366 8.07221 10.2381 8.11831 10.3458 8.14094C10.4536 8.16358 10.5651 8.1622 10.6722 8.13691C10.7794 8.11161 10.8797 8.06302 10.966 7.99458C11.0523 7.92615 11.1225 7.83955 11.1715 7.74094C11.2206 7.64233 11.2473 7.53413 11.2498 7.42402C11.2523 7.31392 11.2305 7.20461 11.186 7.10388L12.5891 5.78328C12.73 5.87575 12.8978 5.91807 13.0656 5.90343C13.2335 5.88878 13.3915 5.81802 13.5141 5.70256C13.6368 5.58711 13.717 5.43369 13.7418 5.26706C13.7666 5.10043 13.7345 4.93031 13.6507 4.78416L14.5001 3.98484V4.15625C14.5001 4.22255 14.5264 4.28614 14.5733 4.33303C14.6202 4.37991 14.6837 4.40625 14.7501 4.40625C14.8164 4.40625 14.8799 4.37991 14.9268 4.33303C14.9737 4.28614 15.0001 4.22255 15.0001 4.15625V3.40625C15.0001 3.33995 14.9737 3.27636 14.9268 3.22947C14.8799 3.18259 14.8164 3.15625 14.7501 3.15625H14.0001C13.9337 3.15625 13.8702 3.18259 13.8233 3.22947C13.7764 3.27636 13.7501 3.33995 13.7501 3.40625C13.7501 3.47255 13.7764 3.53614 13.8233 3.58303C13.8702 3.62991 13.9337 3.65625 14.0001 3.65625H14.1197L13.2694 4.45647C13.1376 4.40566 12.9941 4.39312 12.8555 4.4203C12.7169 4.44748 12.5887 4.51326 12.4859 4.61008C12.383 4.70689 12.3096 4.8308 12.274 4.96752C12.2385 5.10424 12.2423 5.24822 12.2851 5.38287L10.8433 6.73981C10.6845 6.65774 10.5016 6.6352 10.3277 6.67628C10.1537 6.71735 10.0002 6.81932 9.89493 6.96375L8.74905 6.62C8.73899 6.4249 8.65319 6.24143 8.50992 6.10862C8.36665 5.97581 8.17722 5.90414 7.98192 5.90886C7.78661 5.91358 7.60086 5.99433 7.46418 6.13391C7.3275 6.27349 7.25067 6.46089 7.25005 6.65625C7.25005 6.66647 7.25043 6.67659 7.25083 6.68669L6.06333 7.16169C5.96284 7.04697 5.82974 6.96563 5.6818 6.92855C5.53387 6.89146 5.37814 6.90039 5.23541 6.95414C5.09268 7.00789 4.96975 7.1039 4.88302 7.22935C4.7963 7.35481 4.74991 7.50374 4.75005 7.65625C4.75005 7.66647 4.75043 7.67656 4.75083 7.68669L3.56333 8.16169C3.46284 8.04697 3.32974 7.96563 3.1818 7.92855C3.03387 7.89146 2.87814 7.90039 2.73541 7.95414C2.59268 8.00789 2.46975 8.1039 2.38302 8.22935C2.2963 8.35481 2.24991 8.50374 2.25005 8.65625C2.25005 8.67263 2.25077 8.68881 2.2518 8.70494L1.15158 9.17644C1.09864 9.19911 1.05516 9.23936 1.02847 9.29039C1.00178 9.34142 0.993527 9.4001 1.0051 9.45651C1.01668 9.51292 1.04738 9.56361 1.09201 9.6C1.13664 9.63639 1.19246 9.65626 1.25005 9.65625Z" fill="black"/>
<path d="M10.7359 5.23894C10.7115 5.23118 10.6861 5.22724 10.6605 5.22725H9.45241C9.50192 4.90361 9.53177 4.57726 9.54178 4.25H10.9911C10.9637 4.59189 10.8774 4.92647 10.7359 5.23894ZM10.5852 2.47725C10.815 2.86532 10.9537 3.30051 10.9909 3.75H9.54166C9.52848 3.32272 9.48157 2.89714 9.40138 2.47725H10.5852ZM10.2149 1.97725H9.28913C9.22023 1.7095 9.13767 1.44544 9.04178 1.18612C9.49013 1.35288 9.89228 1.62408 10.2149 1.97725ZM7.55988 1.03256C7.85265 0.989146 8.15023 0.989146 8.443 1.03256C8.57323 1.33989 8.68306 1.65547 8.77178 1.97725H7.23116C7.31984 1.65547 7.42965 1.33989 7.55988 1.03256ZM7.11122 2.47725H8.89172C8.97731 2.89654 9.0274 3.3223 9.04147 3.75H6.96138C6.97549 3.32229 7.02562 2.89654 7.11122 2.47725ZM9.04153 4.25C9.03083 4.57746 8.99899 4.90389 8.94622 5.22725H7.05656C7.00379 4.90389 6.97198 4.57746 6.96131 4.25H9.04153ZM6.96119 1.18606C6.8652 1.44539 6.78258 1.70946 6.71363 1.97725H5.78784C6.11053 1.62402 6.51276 1.3528 6.96119 1.18606ZM5.41744 2.47725H6.60138C6.52122 2.89715 6.47436 3.32272 6.46125 3.75H5.01188C5.04901 3.30051 5.18773 2.86532 5.41756 2.47725H5.41744ZM5.26828 5.23838C5.12675 4.92605 5.03997 4.59173 5.01172 4.25H6.46103C6.47108 4.57726 6.50094 4.9036 6.55044 5.22725H5.34228C5.31724 5.22723 5.29233 5.23098 5.26841 5.23838H5.26828Z" fill="black"/>
<path d="M15.25 14.4062H13.5V7.15625H12.5V14.4062H11V9.15625H10V14.4062H8.5V8.40625H7.5V14.4062H6V9.40625H5V14.4062H3.5V10.4062H2.5V14.4062H0.75C0.683696 14.4062 0.620107 14.4326 0.573223 14.4795C0.526339 14.5264 0.5 14.5899 0.5 14.6562C0.5 14.7226 0.526339 14.7861 0.573223 14.833C0.620107 14.8799 0.683696 14.9062 0.75 14.9062H15.25C15.3163 14.9062 15.3799 14.8799 15.4268 14.833C15.4737 14.7861 15.5 14.7226 15.5 14.6562C15.5 14.5899 15.4737 14.5264 15.4268 14.4795C15.3799 14.4326 15.3163 14.4062 15.25 14.4062Z" fill="black"/>
</svg>
