<svg width="16" height="16" viewBox="0 0 16 16" fill="none" xmlns="http://www.w3.org/2000/svg">
<g clip-path="url(#clip0_1440_103)">
<path d="M2.44572 6.32778L0.248059 8.41634C-0.070316 8.71793 -0.084066 9.22259 0.217465 9.54134C0.366997 9.69931 0.577684 9.78994 0.795528 9.78994C0.999653 9.78994 1.1939 9.71259 1.34259 9.572L3.42834 7.59712C3.53331 7.62431 3.64334 7.63878 3.75672 7.63878C4.19437 7.63878 4.58237 7.423 4.82062 7.09243H9.20925C9.44706 7.33309 9.777 7.48253 10.1412 7.48253C10.8641 7.48253 11.4522 6.89443 11.4522 6.17153C11.4522 6.14125 11.4508 6.11131 11.4488 6.08153L12.8122 4.71815C12.9037 4.62662 12.9037 4.47822 12.8122 4.38672C12.7206 4.29518 12.5722 4.29518 12.4807 4.38672L11.3027 5.56468C11.1996 5.36806 11.0481 5.20068 10.864 5.07853L13.9406 2.0019H14.4079V2.4595L13.2551 3.61268C13.1635 3.70425 13.1636 3.85262 13.2551 3.94415C13.3009 3.9899 13.3608 4.01278 13.4208 4.01278C13.4808 4.01278 13.5408 3.9899 13.5866 3.94412L14.4765 3.0539C14.6006 3.33237 14.8797 3.52706 15.2037 3.52706C15.6426 3.52706 15.9996 3.17006 15.9996 2.73128V1.20609C15.9996 0.767278 15.6426 0.410278 15.2037 0.410278H13.6786C13.2398 0.410278 12.8828 0.767278 12.8828 1.20609C12.8828 1.52747 13.0744 1.80478 13.3493 1.93028L10.3943 4.88528C10.3123 4.86918 10.2278 4.86053 10.1412 4.86053C9.66328 4.86053 9.2444 5.11772 9.01531 5.50087H4.77309C4.5325 5.20572 4.16631 5.01678 3.75672 5.01678C3.03381 5.01678 2.44572 5.6049 2.44572 6.32778ZM1.0204 9.2315C0.959215 9.28934 0.87934 9.32119 0.795497 9.32119C0.704559 9.32119 0.620184 9.28493 0.557934 9.21918C0.433934 9.08809 0.439528 8.88062 0.57034 8.75669L2.56347 6.86981C2.65603 7.07278 2.79862 7.24828 2.97575 7.38009L1.0204 9.2315ZM3.75672 7.17003C3.29231 7.17003 2.91447 6.79222 2.91447 6.32778C2.91447 5.86334 3.29228 5.48553 3.75672 5.48553C4.22115 5.48553 4.59897 5.86337 4.59897 6.32778C4.59897 6.79218 4.22112 7.17003 3.75672 7.17003ZM5.03362 6.62368C5.05568 6.52853 5.06772 6.42956 5.06772 6.32778C5.06772 6.20359 5.05 6.08353 5.01756 5.96962H8.84584C8.83562 6.03547 8.83025 6.10287 8.83025 6.17153C8.83025 6.33037 8.85869 6.48265 8.91065 6.62368H5.03362ZM10.1412 7.01378C9.67684 7.01378 9.299 6.63597 9.299 6.17153C9.299 5.70709 9.67684 5.32928 10.1412 5.32928C10.6057 5.32928 10.9835 5.70712 10.9835 6.17153C10.9835 6.63593 10.6057 7.01378 10.1412 7.01378ZM15.5308 2.73122C15.5308 2.91156 15.3841 3.05825 15.2037 3.05825C15.0234 3.05825 14.8767 2.91153 14.8767 2.73122V1.7675C14.8767 1.63806 14.7718 1.53312 14.6423 1.53312H13.6786C13.4982 1.53312 13.3516 1.3864 13.3516 1.20606C13.3516 1.02572 13.4982 0.878997 13.6786 0.878997H15.2037C15.3841 0.878997 15.5308 1.02572 15.5308 1.20606V2.73122Z" fill="black"/>
<path d="M3.08137 10.5197H0.521344C0.233875 10.5197 0 10.7535 0 11.041V11.6175C0 11.7235 0.0319688 11.8221 0.0865625 11.9045C0.0319688 11.9869 0 12.0855 0 12.1915V12.768C0 12.874 0.032 12.9726 0.0865625 13.055C0.032 13.1374 0 13.236 0 13.342V13.9185C0 14.0246 0.032 14.1232 0.0865625 14.2056C0.032 14.2879 0 14.3866 0 14.4926V15.0691C0 15.3565 0.233875 15.5904 0.521344 15.5904H3.08137C3.36884 15.5904 3.60272 15.3565 3.60272 15.0691V14.4926C3.60272 14.3865 3.57072 14.2879 3.51616 14.2055C3.57072 14.1231 3.60272 14.0245 3.60272 13.9185V13.342C3.60272 13.236 3.57072 13.1374 3.51616 13.055C3.57072 12.9726 3.60272 12.874 3.60272 12.7679V12.1915C3.60272 12.0855 3.57075 11.9868 3.51616 11.9045C3.57072 11.8221 3.60272 11.7235 3.60272 11.6175V11.041C3.60272 10.7535 3.36884 10.5197 3.08137 10.5197ZM0.46875 11.041C0.46875 11.012 0.492344 10.9884 0.521344 10.9884H3.08137C3.11037 10.9884 3.13397 11.012 3.13397 11.041V11.6175C3.13397 11.6465 3.11037 11.6701 3.08137 11.6701H0.521344C0.492344 11.6701 0.46875 11.6465 0.46875 11.6175V11.041ZM3.13397 13.9185C3.13397 13.9475 3.11037 13.9711 3.08137 13.9711H0.521344C0.492344 13.9711 0.46875 13.9475 0.46875 13.9185V13.342C0.46875 13.313 0.492344 13.2894 0.521344 13.2894C0.522063 13.2894 0.52275 13.2893 0.523469 13.2893H3.07925C3.07997 13.2893 3.08066 13.2894 3.08137 13.2894C3.11037 13.2894 3.13397 13.313 3.13397 13.342V13.9185ZM3.13397 12.768C3.13397 12.797 3.11037 12.8206 3.08137 12.8206H0.521344C0.492344 12.8206 0.46875 12.797 0.46875 12.768V12.1915C0.46875 12.1625 0.492344 12.1389 0.521344 12.1389C0.521844 12.1389 0.522344 12.1389 0.522844 12.1389H3.07984C3.08034 12.1389 3.08084 12.1389 3.08134 12.1389C3.11034 12.1389 3.13394 12.1625 3.13394 12.1915V12.768H3.13397ZM3.13397 15.0691C3.13397 15.0981 3.11037 15.1217 3.08137 15.1217H0.521344C0.492344 15.1217 0.46875 15.0981 0.46875 15.0691V14.4926C0.46875 14.4636 0.492344 14.44 0.521344 14.44C0.521969 14.44 0.522531 14.4399 0.523156 14.4399H3.07956C3.08019 14.4399 3.08075 14.44 3.08137 14.44C3.11037 14.44 3.13397 14.4636 3.13397 14.4926V15.0691Z" fill="black"/>
<path d="M7.21419 8.21814H4.65419C4.36672 8.21814 4.13281 8.45201 4.13281 8.73948V9.31598C4.13281 9.42201 4.16481 9.52061 4.21938 9.60301C4.16478 9.68542 4.13281 9.78401 4.13281 9.89004V10.4665C4.13281 10.5725 4.16481 10.6712 4.21941 10.7536C4.16481 10.836 4.13281 10.9346 4.13281 11.0406V11.6171C4.13281 11.7231 4.16481 11.8217 4.21938 11.9041C4.16481 11.9865 4.13281 12.0851 4.13281 12.1912V12.7676C4.13281 12.8737 4.16481 12.9723 4.21938 13.0547C4.16481 13.1371 4.13281 13.2357 4.13281 13.3417V13.9182C4.13281 14.0242 4.16478 14.1228 4.21938 14.2052C4.16478 14.2876 4.13281 14.3862 4.13281 14.4922V15.0687C4.13281 15.3562 4.36669 15.5901 4.65419 15.5901H7.21419C7.50166 15.5901 7.73556 15.3562 7.73556 15.0687V14.4922C7.73556 14.3862 7.70356 14.2876 7.649 14.2052C7.70356 14.1228 7.73556 14.0242 7.73556 13.9182V13.3417C7.73556 13.2356 7.70356 13.137 7.649 13.0546C7.70359 12.9722 7.73556 12.8736 7.73556 12.7676V12.1911C7.73556 12.0851 7.70356 11.9865 7.649 11.9041C7.70359 11.8217 7.73556 11.7231 7.73556 11.6171V11.0406C7.73556 10.9345 7.70356 10.8359 7.64897 10.7535C7.70356 10.6711 7.73556 10.5725 7.73556 10.4665V9.89001C7.73556 9.78398 7.70356 9.68539 7.649 9.60298C7.70359 9.52058 7.73556 9.42198 7.73556 9.31595V8.73945C7.73553 8.45201 7.50166 8.21814 7.21419 8.21814ZM4.60156 8.73948C4.60156 8.71048 4.62516 8.68689 4.65419 8.68689H7.21419C7.24319 8.68689 7.26681 8.71048 7.26681 8.73948V9.31598C7.26681 9.34498 7.24322 9.36858 7.21419 9.36858H4.65419C4.62519 9.36858 4.60156 9.34498 4.60156 9.31598V8.73948ZM7.26678 12.7676C7.26678 12.7966 7.24319 12.8202 7.21416 12.8202H6.17931C6.04988 12.8202 5.94494 12.9252 5.94494 13.0546C5.94494 13.184 6.04988 13.289 6.17931 13.289H7.21203C7.21275 13.289 7.21344 13.2891 7.21416 13.2891C7.24316 13.2891 7.26678 13.3127 7.26678 13.3417V13.9182C7.26678 13.9472 7.24319 13.9708 7.21416 13.9708H4.65416C4.62516 13.9708 4.60156 13.9472 4.60156 13.9182V13.3417C4.60156 13.3127 4.62516 13.2891 4.65416 13.2891C4.65488 13.2891 4.65556 13.289 4.65628 13.289H5.08431C5.21375 13.289 5.31869 13.184 5.31869 13.0546C5.31869 12.9252 5.21375 12.8202 5.08431 12.8202H4.65416C4.62516 12.8202 4.60156 12.7966 4.60156 12.7676V12.1912C4.60156 12.1622 4.62516 12.1386 4.65416 12.1386C4.65488 12.1386 4.65556 12.1385 4.65628 12.1385H7.21206C7.21278 12.1385 7.21347 12.1386 7.21419 12.1386C7.24319 12.1386 7.26681 12.1622 7.26681 12.1912V12.7676H7.26678ZM7.26678 11.6171C7.26678 11.6461 7.24319 11.6697 7.21416 11.6697H4.65416C4.62516 11.6697 4.60153 11.6461 4.60153 11.6171V11.0406C4.60153 11.0116 4.62513 10.988 4.65416 10.988C4.65506 10.988 4.65597 10.9879 4.65688 10.9879H7.21144C7.21234 10.9879 7.21325 10.988 7.21416 10.988C7.24316 10.988 7.26678 11.0116 7.26678 11.0406V11.6171ZM7.26678 10.4665C7.26678 10.4955 7.24319 10.5191 7.21416 10.5191H4.65416C4.62516 10.5191 4.60153 10.4955 4.60153 10.4665V9.89004C4.60153 9.86104 4.62513 9.83745 4.65416 9.83745C4.65497 9.83745 4.65575 9.83733 4.65656 9.83733H7.21175C7.21256 9.83733 7.21334 9.83745 7.21416 9.83745C7.24316 9.83745 7.26678 9.86104 7.26678 9.89004V10.4665ZM7.26678 15.0687C7.26678 15.0977 7.24319 15.1213 7.21416 15.1213H4.65416C4.62516 15.1213 4.60153 15.0977 4.60153 15.0687V14.4922C4.60153 14.4632 4.62513 14.4396 4.65416 14.4396C4.65478 14.4396 4.65534 14.4395 4.65597 14.4395H7.21234C7.21297 14.4395 7.21353 14.4396 7.21416 14.4396C7.24316 14.4396 7.26678 14.4632 7.26678 14.4922V15.0687Z" fill="black"/>
<path d="M11.347 8.21826H8.787C8.49953 8.21826 8.26562 8.45214 8.26562 8.73961V9.31611C8.26562 9.42214 8.29763 9.52073 8.35219 9.60314C8.29759 9.68554 8.26562 9.78414 8.26562 9.89017V10.4667C8.26562 10.5727 8.29763 10.6713 8.35219 10.7537C8.29763 10.8361 8.26562 10.9347 8.26562 11.0407V11.6172C8.26562 11.7233 8.29763 11.8219 8.35219 11.9043C8.29759 11.9867 8.26562 12.0853 8.26562 12.1913V12.7678C8.26562 12.8738 8.29763 12.9724 8.35219 13.0548C8.29759 13.1372 8.26562 13.2358 8.26562 13.3418V13.9183C8.26562 14.0244 8.29763 14.1229 8.35219 14.2054C8.29763 14.2878 8.26562 14.3864 8.26562 14.4924V15.0689C8.26562 15.3564 8.4995 15.5902 8.787 15.5902H11.347C11.6345 15.5902 11.8684 15.3564 11.8684 15.0689V14.4924C11.8684 14.3864 11.8364 14.2878 11.7818 14.2054C11.8364 14.1229 11.8684 14.0244 11.8684 13.9183V13.3418C11.8684 13.2358 11.8364 13.1372 11.7818 13.0548C11.8364 12.9724 11.8684 12.8738 11.8684 12.7678V12.1913C11.8684 12.0853 11.8364 11.9867 11.7818 11.9043C11.8364 11.8219 11.8684 11.7233 11.8684 11.6172V11.0407C11.8684 10.9347 11.8364 10.8361 11.7818 10.7537C11.8364 10.6713 11.8684 10.5727 11.8684 10.4667V9.89017C11.8684 9.78414 11.8364 9.68554 11.7818 9.60314C11.8364 9.52073 11.8684 9.42214 11.8684 9.31611V8.73961C11.8684 8.45214 11.6345 8.21826 11.347 8.21826ZM8.73441 8.73961C8.73441 8.71061 8.758 8.68701 8.78703 8.68701H11.3471C11.3761 8.68701 11.3997 8.71061 11.3997 8.73961V9.31611C11.3997 9.34511 11.3761 9.3687 11.3471 9.3687H8.78703C8.758 9.3687 8.73441 9.34511 8.73441 9.31611V8.73961ZM11.3997 13.9183C11.3997 13.9473 11.3761 13.9709 11.347 13.9709H8.787C8.75797 13.9709 8.73438 13.9473 8.73438 13.9183V13.3418C8.73438 13.3128 8.75797 13.2892 8.787 13.2892C8.78772 13.2892 8.78841 13.2891 8.78913 13.2891H11.3449C11.3456 13.2891 11.3463 13.2892 11.347 13.2892C11.3761 13.2892 11.3997 13.3128 11.3997 13.3418V13.9183ZM11.3997 12.7677C11.3997 12.7967 11.3761 12.8203 11.347 12.8203H8.787C8.75797 12.8203 8.73438 12.7967 8.73438 12.7677V12.1913C8.73438 12.1623 8.75797 12.1387 8.787 12.1387C8.78772 12.1387 8.78841 12.1386 8.78913 12.1386H11.3449C11.3456 12.1386 11.3463 12.1387 11.347 12.1387C11.3761 12.1387 11.3997 12.1623 11.3997 12.1913V12.7677ZM11.3997 11.6172C11.3997 11.6462 11.3761 11.6698 11.347 11.6698H8.787C8.75797 11.6698 8.73438 11.6462 8.73438 11.6172V11.0407C8.73438 11.0117 8.75797 10.9881 8.787 10.9881C8.78763 10.9881 8.78819 10.988 8.78881 10.988H11.3452C11.3458 10.988 11.3464 10.9881 11.347 10.9881C11.3761 10.9881 11.3997 11.0117 11.3997 11.0407V11.6172ZM11.3997 10.4667C11.3997 10.4957 11.3761 10.5193 11.347 10.5193H8.787C8.75797 10.5193 8.73438 10.4957 8.73438 10.4667V9.89017C8.73438 9.86117 8.75797 9.83757 8.787 9.83757C8.78781 9.83757 8.78859 9.83745 8.78941 9.83745H11.3446C11.3454 9.83745 11.3462 9.83757 11.347 9.83757C11.376 9.83757 11.3996 9.86117 11.3996 9.89017V10.4667H11.3997ZM11.3997 15.0688C11.3997 15.0978 11.3761 15.1214 11.347 15.1214H8.787C8.75797 15.1214 8.73438 15.0978 8.73438 15.0688V14.4923C8.73438 14.4633 8.75797 14.4397 8.787 14.4397C8.78763 14.4397 8.78819 14.4396 8.78881 14.4396H11.3452C11.3458 14.4396 11.3464 14.4397 11.347 14.4397C11.3761 14.4397 11.3997 14.4633 11.3997 14.4923V15.0688Z" fill="black"/>
<path d="M15.4798 5.91699H14.8555C14.726 5.91699 14.6211 6.02193 14.6211 6.15137C14.6211 6.2808 14.726 6.38574 14.8555 6.38574H15.4798C15.5088 6.38574 15.5324 6.40934 15.5324 6.43834V7.0148C15.5324 7.0438 15.5088 7.06743 15.4798 7.06743H12.9198C12.8908 7.06743 12.8672 7.04384 12.8672 7.0148V6.43834C12.8672 6.40934 12.8908 6.38574 12.9198 6.38574H13.7604C13.8899 6.38574 13.9948 6.2808 13.9948 6.15137C13.9948 6.02193 13.8899 5.91699 13.7604 5.91699H12.9198C12.6323 5.91699 12.3984 6.15087 12.3984 6.43834V7.0148C12.3984 7.12084 12.4304 7.21943 12.485 7.30184C12.4304 7.38424 12.3984 7.48284 12.3984 7.58887V8.16537C12.3984 8.27137 12.4304 8.36996 12.485 8.45237C12.4304 8.53474 12.3984 8.63337 12.3984 8.73937V9.31584C12.3984 9.42187 12.4304 9.52046 12.485 9.60287C12.4304 9.68527 12.3984 9.78387 12.3984 9.8899V10.4664C12.3984 10.5724 12.4304 10.671 12.485 10.7534C12.4304 10.8358 12.3984 10.9344 12.3984 11.0405V11.617C12.3984 11.723 12.4304 11.8216 12.485 11.904C12.4304 11.9864 12.3984 12.085 12.3984 12.191V12.7675C12.3984 12.8735 12.4304 12.9721 12.485 13.0545C12.4304 13.1369 12.3984 13.2355 12.3984 13.3416V13.9181C12.3984 14.0241 12.4304 14.1227 12.485 14.2051C12.4304 14.2875 12.3984 14.3861 12.3984 14.4921V15.0686C12.3984 15.3561 12.6323 15.59 12.9198 15.59H15.4798C15.7673 15.59 16.0012 15.3561 16.0012 15.0686V14.4921C16.0012 14.3861 15.9692 14.2875 15.9146 14.2051C15.9692 14.1227 16.0012 14.0241 16.0012 13.9181V13.3416C16.0012 13.2355 15.9692 13.1369 15.9146 13.0545C15.9692 12.9721 16.0012 12.8735 16.0012 12.7675V12.191C16.0012 12.085 15.9692 11.9864 15.9146 11.904C15.9692 11.8216 16.0012 11.723 16.0012 11.617V11.0405C16.0012 10.9344 15.9692 10.8358 15.9146 10.7534C15.9692 10.671 16.0012 10.5724 16.0012 10.4664V9.8899C16.0012 9.78387 15.9692 9.68527 15.9146 9.60287C15.9692 9.52046 16.0012 9.42187 16.0012 9.31584V8.73937C16.0012 8.63337 15.9692 8.53477 15.9147 8.45237C15.9692 8.36999 16.0012 8.27137 16.0012 8.16537V7.58887C16.0012 7.48284 15.9692 7.38424 15.9146 7.30184C15.9692 7.21943 16.0012 7.12084 16.0012 7.0148V6.43834C16.0012 6.15087 15.7673 5.91699 15.4798 5.91699ZM15.5324 13.918C15.5324 13.947 15.5088 13.9706 15.4798 13.9706H12.9198C12.8908 13.9706 12.8672 13.947 12.8672 13.918V13.3415C12.8672 13.3125 12.8908 13.2889 12.9198 13.2889C12.9205 13.2889 12.9212 13.2888 12.9219 13.2888H15.4777C15.4784 13.2888 15.4791 13.2889 15.4798 13.2889C15.5088 13.2889 15.5324 13.3125 15.5324 13.3415V13.918ZM15.5324 12.7674C15.5324 12.7964 15.5088 12.82 15.4798 12.82H12.9198C12.8908 12.82 12.8672 12.7964 12.8672 12.7674V12.191C12.8672 12.162 12.8908 12.1384 12.9198 12.1384C12.9205 12.1384 12.9212 12.1383 12.9219 12.1383H15.4777C15.4784 12.1383 15.4791 12.1384 15.4798 12.1384C15.5088 12.1384 15.5324 12.162 15.5324 12.191V12.7674ZM15.5324 11.6169C15.5324 11.6459 15.5088 11.6695 15.4798 11.6695H12.9198C12.8908 11.6695 12.8672 11.6459 12.8672 11.6169V11.0404C12.8672 11.0114 12.8908 10.9878 12.9198 10.9878C12.9204 10.9878 12.921 10.9877 12.9216 10.9877H15.478C15.4787 10.9877 15.4793 10.9878 15.4798 10.9878C15.5088 10.9878 15.5324 11.0114 15.5324 11.0404V11.6169ZM15.5324 10.4664C15.5324 10.4954 15.5088 10.519 15.4798 10.519H12.9198C12.8908 10.519 12.8672 10.4954 12.8672 10.4664V9.88987C12.8672 9.86087 12.8908 9.83727 12.9198 9.83727C12.9204 9.83727 12.921 9.83718 12.9216 9.83718H15.478C15.4787 9.83718 15.4793 9.83727 15.4798 9.83727C15.5088 9.83727 15.5324 9.86087 15.5324 9.88987V10.4664ZM15.5324 9.31584C15.5324 9.34484 15.5088 9.36846 15.4798 9.36846H12.9198C12.8908 9.36846 12.8672 9.34487 12.8672 9.31584V8.73937C12.8672 8.71037 12.8908 8.68677 12.9198 8.68677C12.9201 8.68677 12.9204 8.68674 12.9207 8.68674H15.4789C15.4793 8.68674 15.4795 8.68677 15.4798 8.68677C15.5088 8.68677 15.5324 8.71037 15.5324 8.73937V9.31584ZM15.5324 8.16537C15.5324 8.19437 15.5088 8.21796 15.4798 8.21796H12.9198C12.8908 8.21796 12.8672 8.19437 12.8672 8.16537V7.58887C12.8672 7.55987 12.8908 7.53627 12.9198 7.53627C12.9204 7.53627 12.921 7.53618 12.9216 7.53618H15.478C15.4787 7.53618 15.4793 7.53627 15.4798 7.53627C15.5088 7.53627 15.5324 7.55987 15.5324 7.58887V8.16537ZM15.5324 15.0685C15.5324 15.0975 15.5088 15.1211 15.4798 15.1211H12.9198C12.8908 15.1211 12.8672 15.0975 12.8672 15.0685V14.492C12.8672 14.463 12.8908 14.4394 12.9198 14.4394C12.9204 14.4394 12.921 14.4393 12.9216 14.4393H15.478C15.4787 14.4393 15.4793 14.4394 15.4798 14.4394C15.5088 14.4394 15.5324 14.463 15.5324 14.492V15.0685Z" fill="black"/>
</g>
<defs>
<clipPath id="clip0_1440_103">
<rect width="16" height="16" fill="white"/>
</clipPath>
</defs>
</svg>
