<svg width="24" height="23" viewBox="0 0 24 23" fill="none" xmlns="http://www.w3.org/2000/svg">
<path fill-rule="evenodd" clip-rule="evenodd" d="M19.9579 3.84084C17.8529 1.8212 15.0535 0.70846 12.0711 0.707275C5.92564 0.707275 0.924118 5.50027 0.921646 11.3913C0.920822 13.2744 1.43416 15.1127 2.40988 16.7331L0.828125 22.2698L6.73863 20.7839C8.36722 21.6353 10.2007 22.0839 12.0666 22.0845H12.0713C18.216 22.0845 23.2181 17.2911 23.2205 11.3998C23.2217 8.54474 22.063 5.86035 19.9579 3.84084ZM12.0711 20.28H12.0673C10.4045 20.2793 8.77371 19.8511 7.35071 19.0421L7.01247 18.8496L3.50508 19.7313L4.44125 16.4542L4.22084 16.1182C3.29318 14.7042 2.80333 13.0699 2.80415 11.3919C2.80608 6.49548 6.9633 2.51187 12.0748 2.51187C14.55 2.51266 16.8768 3.43759 18.6264 5.11624C20.376 6.79489 21.3389 9.02616 21.3381 11.3992C21.3359 16.296 17.1789 20.28 12.0711 20.28ZM17.1542 13.6287C16.8757 13.495 15.506 12.8493 15.2506 12.7601C14.9954 12.671 14.8095 12.6267 14.6239 12.8938C14.4381 13.161 13.9043 13.7624 13.7417 13.9405C13.5791 14.1187 13.4168 14.1411 13.1382 14.0073C12.8595 13.8738 11.9619 13.5917 10.8978 12.6822C10.0697 11.9743 9.51062 11.1 9.34802 10.8329C9.1857 10.5654 9.34665 10.4349 9.47024 10.288C9.77182 9.92911 10.0738 9.55285 10.1666 9.37478C10.2596 9.19659 10.2131 9.04063 10.1433 8.90705C10.0738 8.77347 9.51666 7.45937 9.28457 6.92465C9.05826 6.40428 8.82878 6.47456 8.65767 6.4664C8.49534 6.45863 8.30954 6.45705 8.12373 6.45705C7.93806 6.45705 7.63621 6.52378 7.38078 6.7912C7.12549 7.0585 6.40588 7.70429 6.40588 9.01839C6.40588 10.3325 7.40413 11.602 7.54338 11.7802C7.68263 11.9584 9.50787 14.655 12.3024 15.8113C12.9671 16.0866 13.4859 16.2507 13.8906 16.3738C14.558 16.577 15.1651 16.5483 15.6452 16.4796C16.1806 16.4029 17.2933 15.8337 17.5257 15.2101C17.7578 14.5864 17.7578 14.052 17.688 13.9405C17.6185 13.8292 17.4327 13.7624 17.1542 13.6287Z" fill="black"/>
</svg>
