<svg width="16" height="16" viewBox="0 0 16 16" fill="none" xmlns="http://www.w3.org/2000/svg">
<path d="M14.5 0.25H1.5C1.1686 0.250397 0.850889 0.38222 0.616555 0.616555C0.38222 0.850889 0.250397 1.1686 0.25 1.5V14.5C0.250397 14.8314 0.38222 15.1491 0.616555 15.3834C0.850889 15.6178 1.1686 15.7496 1.5 15.75H14.5C14.8314 15.7496 15.1491 15.6178 15.3834 15.3834C15.6178 15.1491 15.7496 14.8314 15.75 14.5V1.5C15.7496 1.1686 15.6178 0.850889 15.3834 0.616555C15.1491 0.38222 14.8314 0.250397 14.5 0.25ZM1.5 0.75H14.5C14.6989 0.75 14.8897 0.829018 15.0303 0.96967C15.171 1.11032 15.25 1.30109 15.25 1.5V2.75H10.7343C10.4414 2.29026 10.0373 1.9118 9.55935 1.64961C9.08143 1.38742 8.54511 1.24996 8 1.24996C7.45489 1.24996 6.91857 1.38742 6.44065 1.64961C5.96274 1.9118 5.55865 2.29026 5.26575 2.75H0.75V1.5C0.75 1.30109 0.829018 1.11032 0.96967 0.96967C1.11032 0.829018 1.30109 0.75 1.5 0.75ZM8 1.75C8.5439 1.75 9.07558 1.91128 9.52782 2.21346C9.98005 2.51563 10.3325 2.94512 10.5407 3.44762C10.7488 3.95012 10.8033 4.50305 10.6972 5.0365C10.5911 5.56995 10.3291 6.05995 9.94454 6.44454C9.55995 6.82914 9.06995 7.09105 8.5365 7.19716C8.00305 7.30327 7.45012 7.24881 6.94762 7.04067C6.44512 6.83253 6.01563 6.48005 5.71346 6.02782C5.41128 5.57558 5.25 5.0439 5.25 4.5C5.25086 3.77092 5.54087 3.07194 6.05641 2.55641C6.57195 2.04087 7.27092 1.75086 8 1.75ZM14.5 15.25H1.5C1.30109 15.25 1.11032 15.171 0.96967 15.0303C0.829018 14.8897 0.75 14.6989 0.75 14.5V3.25H5C4.79422 3.74388 4.71355 4.28093 4.76515 4.81348C4.81676 5.34603 4.99905 5.85759 5.29584 6.30278C5.59262 6.74796 5.99473 7.11298 6.46646 7.36544C6.93819 7.61791 7.46496 7.75 8 7.75C8.53504 7.75 9.06181 7.61791 9.53354 7.36544C10.0053 7.11298 10.4074 6.74796 10.7042 6.30278C11.001 5.85759 11.1832 5.34603 11.2348 4.81348C11.2865 4.28093 11.2058 3.74388 11 3.25H15.25V14.5C15.25 14.6989 15.171 14.8897 15.0303 15.0303C14.8897 15.171 14.6989 15.25 14.5 15.25Z" fill="black"/>
<path d="M13.75 2.25C14.0261 2.25 14.25 2.02614 14.25 1.75C14.25 1.47386 14.0261 1.25 13.75 1.25C13.4739 1.25 13.25 1.47386 13.25 1.75C13.25 2.02614 13.4739 2.25 13.75 2.25Z" fill="black"/>
<path d="M11.75 2.25C12.0261 2.25 12.25 2.02614 12.25 1.75C12.25 1.47386 12.0261 1.25 11.75 1.25C11.4739 1.25 11.25 1.47386 11.25 1.75C11.25 2.02614 11.4739 2.25 11.75 2.25Z" fill="black"/>
<path d="M5.25 1.5H1.75V2H5.25V1.5Z" fill="black"/>
<path d="M8 9.25C7.55499 9.25 7.11998 9.38196 6.74997 9.62919C6.37996 9.87643 6.09157 10.2278 5.92127 10.639C5.75097 11.0501 5.70642 11.5025 5.79323 11.939C5.88005 12.3754 6.09434 12.7763 6.40901 13.091C6.72368 13.4057 7.12459 13.62 7.56104 13.7068C7.9975 13.7936 8.4499 13.749 8.86103 13.5787C9.27217 13.4084 9.62357 13.12 9.8708 12.75C10.118 12.38 10.25 11.945 10.25 11.5C10.2493 10.9035 10.0121 10.3316 9.59025 9.90974C9.16844 9.48793 8.59653 9.25066 8 9.25ZM8 13.25C7.65388 13.25 7.31554 13.1474 7.02775 12.9551C6.73997 12.7628 6.51566 12.4895 6.38321 12.1697C6.25076 11.8499 6.2161 11.4981 6.28363 11.1586C6.35115 10.8191 6.51782 10.5073 6.76256 10.2626C7.0073 10.0178 7.31912 9.85115 7.65859 9.78363C7.99806 9.7161 8.34992 9.75076 8.66969 9.88321C8.98946 10.0157 9.26277 10.24 9.45507 10.5278C9.64736 10.8155 9.74999 11.1539 9.74999 11.5C9.74947 11.964 9.56492 12.4088 9.23685 12.7369C8.90877 13.0649 8.46396 13.2495 8 13.25Z" fill="black"/>
<path d="M8.5 11H9C9 10.8011 8.92098 10.6103 8.78033 10.4697C8.63968 10.329 8.44891 10.25 8.25 10.25V10H7.75V10.25C7.55109 10.25 7.36032 10.329 7.21967 10.4697C7.07902 10.6103 7 10.8011 7 11C7 11.1989 7.07902 11.3897 7.21967 11.5303C7.36032 11.671 7.55109 11.75 7.75 11.75V12.25C7.6837 12.25 7.62011 12.2237 7.57322 12.1768C7.52634 12.1299 7.5 12.0663 7.5 12H7C7 12.1989 7.07902 12.3897 7.21967 12.5303C7.36032 12.671 7.55109 12.75 7.75 12.75V13H8.25V12.75C8.44891 12.75 8.63968 12.671 8.78033 12.5303C8.92098 12.3897 9 12.1989 9 12C9 11.8011 8.92098 11.6103 8.78033 11.4697C8.63968 11.329 8.44891 11.25 8.25 11.25V10.75C8.3163 10.75 8.37989 10.7763 8.42678 10.8232C8.47366 10.8701 8.5 10.9337 8.5 11ZM8.5 12C8.5 12.0663 8.47366 12.1299 8.42678 12.1768C8.37989 12.2237 8.3163 12.25 8.25 12.25V11.75C8.3163 11.75 8.37989 11.7763 8.42678 11.8232C8.47366 11.8701 8.5 11.9337 8.5 12ZM7.75 11.25C7.6837 11.25 7.62011 11.2237 7.57322 11.1768C7.52634 11.1299 7.5 11.0663 7.5 11C7.5 10.9337 7.52634 10.8701 7.57322 10.8232C7.62011 10.7763 7.6837 10.75 7.75 10.75V11.25Z" fill="black"/>
<path d="M14.4997 6H11.4997C11.4503 6.00001 11.4019 6.01468 11.3608 6.04215C11.3197 6.06962 11.2877 6.10866 11.2688 6.15434C11.2499 6.20001 11.2449 6.25027 11.2546 6.29876C11.2642 6.34725 11.288 6.39179 11.3229 6.42675L11.8962 7L9.9727 8.9235C9.40767 8.48688 8.71377 8.25002 7.9997 8.25002C7.28563 8.25002 6.59173 8.48688 6.0267 8.9235L3.4267 6.3235C3.37981 6.27663 3.31624 6.2503 3.24995 6.2503C3.18366 6.2503 3.12008 6.27663 3.0732 6.3235L1.3232 8.0735C1.27633 8.12038 1.25 8.18396 1.25 8.25025C1.25 8.31654 1.27633 8.38012 1.3232 8.427L4.7732 11.877C4.87242 12.6981 5.28092 13.4504 5.91549 13.9808C6.55006 14.5111 7.36296 14.7797 8.18859 14.7316C9.01422 14.6835 9.79047 14.3225 10.3592 13.7221C10.928 13.1217 11.2464 12.327 11.2497 11.5C11.2497 11.453 11.2447 11.4073 11.2427 11.3605L13.7497 8.8535L14.3229 9.42675C14.3579 9.4617 14.4025 9.4855 14.4509 9.49515C14.4994 9.50479 14.5497 9.49984 14.5954 9.48092C14.641 9.462 14.6801 9.42997 14.7075 9.38886C14.735 9.34776 14.7497 9.29944 14.7497 9.25V6.25C14.7497 6.1837 14.7234 6.12011 14.6765 6.07322C14.6296 6.02634 14.566 6 14.4997 6ZM3.2497 6.8535L5.65345 9.25725C5.15413 9.77654 4.84226 10.4475 4.7672 11.164L1.8532 8.25L3.2497 6.8535ZM7.9997 14.25C7.4558 14.25 6.92411 14.0887 6.47188 13.7865C6.01964 13.4844 5.66717 13.0549 5.45903 12.5524C5.25089 12.0499 5.19643 11.4969 5.30254 10.9635C5.40865 10.4301 5.67056 9.94005 6.05515 9.55546C6.43975 9.17086 6.92975 8.90895 7.4632 8.80284C7.99665 8.69673 8.54958 8.75119 9.05208 8.95933C9.55457 9.16747 9.98406 9.51995 10.2862 9.97218C10.5884 10.4244 10.7497 10.9561 10.7497 11.5C10.7488 12.2291 10.4588 12.9281 9.94329 13.4436C9.42775 13.9591 8.72878 14.2491 7.9997 14.25ZM14.2497 8.6465L13.9264 8.32325C13.8796 8.27638 13.816 8.25005 13.7497 8.25005C13.6834 8.25005 13.6198 8.27638 13.5729 8.32325L11.1562 10.74C11.0219 10.1828 10.7423 9.67123 10.3459 9.25725L12.4264 7.17675C12.4733 7.12987 12.4996 7.06629 12.4996 7C12.4996 6.93371 12.4733 6.87013 12.4264 6.82325L12.1032 6.5H14.2497V8.6465Z" fill="black"/>
<path d="M8 6.75C8.27614 6.75 8.5 6.52614 8.5 6.25C8.5 5.97386 8.27614 5.75 8 5.75C7.72386 5.75 7.5 5.97386 7.5 6.25C7.5 6.52614 7.72386 6.75 8 6.75Z" fill="black"/>
<path d="M7.471 5.033C7.48691 5.1621 7.54947 5.28092 7.64691 5.36709C7.74434 5.45326 7.86993 5.50082 8 5.50082C8.13007 5.50082 8.25566 5.45326 8.35309 5.36709C8.45053 5.28092 8.51309 5.1621 8.529 5.033L8.717 3.529C8.739 3.35353 8.75002 3.17685 8.75 3C8.75 2.80109 8.67098 2.61032 8.53033 2.46967C8.38968 2.32902 8.19891 2.25 8 2.25C7.80109 2.25 7.61032 2.32902 7.46967 2.46967C7.32902 2.61032 7.25 2.80109 7.25 3C7.24998 3.17685 7.261 3.35353 7.283 3.529L7.471 5.033ZM8 2.75C8.0663 2.75 8.12989 2.77634 8.17678 2.82322C8.22366 2.87011 8.25 2.9337 8.25 3C8.24996 3.15612 8.24028 3.31208 8.221 3.467L8.033 4.971C8.031 4.97821 8.02668 4.98457 8.02073 4.9891C8.01477 4.99363 8.00749 4.99608 8 4.99608C7.99251 4.99608 7.98523 4.99363 7.97928 4.9891C7.97332 4.98457 7.969 4.97821 7.967 4.971L7.779 3.467C7.75972 3.31208 7.75004 3.15612 7.75 3C7.75 2.9337 7.77634 2.87011 7.82322 2.82322C7.87011 2.77634 7.9337 2.75 8 2.75Z" fill="black"/>
</svg>
