<svg width="20" height="20" viewBox="0 0 20 20" fill="none" xmlns="http://www.w3.org/2000/svg">
<path fill-rule="evenodd" clip-rule="evenodd" d="M9.9042 12.0116L9.99829 12.0117L10.2088 12.0124C11.8176 12.023 15.4942 12.1855 15.4942 14.6775C15.4942 17.1531 11.9458 17.3145 10.2339 17.3251L9.5996 17.3251C7.99068 17.3145 4.31336 17.1522 4.31336 14.6633C4.31336 12.1846 7.99068 12.0229 9.5996 12.0124L9.8101 12.0117C9.84276 12.0116 9.87414 12.0116 9.9042 12.0116ZM9.9042 13.2616C7.9242 13.2616 5.56336 13.505 5.56336 14.6633C5.56336 15.7954 7.78329 16.0601 9.72323 16.0751L9.9042 16.0758C11.8842 16.0758 14.2442 15.8333 14.2442 14.6775C14.2442 13.5075 11.8842 13.2616 9.9042 13.2616ZM16.5322 11.6735C18.5514 11.976 18.9755 12.9243 18.9755 13.6668C18.9755 14.1201 18.7972 14.9476 17.6055 15.4018C17.5322 15.4293 17.4572 15.4426 17.383 15.4426C17.1314 15.4426 16.8939 15.2893 16.7989 15.0401C16.6755 14.7176 16.838 14.356 17.1605 14.2335C17.7255 14.0185 17.7255 13.781 17.7255 13.6668C17.7255 13.3018 17.2614 13.0468 16.3464 12.9101C16.0055 12.8585 15.7697 12.541 15.8205 12.1985C15.8714 11.8568 16.188 11.6293 16.5322 11.6735ZM3.98703 12.1985C4.03786 12.541 3.80203 12.8585 3.4612 12.9101C2.5462 13.0468 2.08203 13.3018 2.08203 13.6668C2.08203 13.781 2.08203 14.0176 2.64786 14.2335C2.97037 14.356 3.13286 14.7176 3.00953 15.0401C2.91453 15.2893 2.67703 15.4426 2.42536 15.4426C2.3512 15.4426 2.2762 15.4293 2.20286 15.4018C1.01036 14.9468 0.832031 14.1193 0.832031 13.6668C0.832031 12.9251 1.2562 11.976 3.2762 11.6735C3.62036 11.6301 3.93536 11.8568 3.98703 12.1985ZM9.9042 3.33331C12.0042 3.33331 13.7117 5.04165 13.7117 7.14081C13.7117 9.23998 12.0042 10.9483 9.9042 10.9483H9.8817C8.86503 10.945 7.91253 10.5466 7.1992 9.82665C6.4842 9.10748 6.09337 8.15248 6.0975 7.13831C6.0975 5.04165 7.80503 3.33331 9.9042 3.33331ZM9.9042 4.58331C8.4942 4.58331 7.34751 5.73081 7.34751 7.14081C7.34503 7.82415 7.6067 8.46331 8.08587 8.94581C8.56503 9.42831 9.20337 9.69581 9.88337 9.69831L9.9042 10.3233V9.69831C11.3142 9.69831 12.4617 8.55165 12.4617 7.14081C12.4617 5.73081 11.3142 4.58331 9.9042 4.58331ZM15.0617 4.14956C16.5267 4.3904 17.5909 5.64373 17.5909 7.12956C17.5875 8.6254 16.47 9.90873 14.9909 10.1162C14.9617 10.1204 14.9325 10.1221 14.9042 10.1221C14.5975 10.1221 14.33 9.89623 14.2859 9.58373C14.2384 9.24123 14.4759 8.9254 14.8184 8.8779C15.685 8.75623 16.3392 8.00456 16.3409 7.1279C16.3409 6.25873 15.7175 5.52373 14.8584 5.3829C14.5184 5.32706 14.2875 5.0054 14.3434 4.66456C14.4 4.32373 14.7192 4.0954 15.0617 4.14956ZM5.46503 4.66456C5.52086 5.0054 5.29003 5.32706 4.95003 5.3829C4.09086 5.52373 3.46753 6.25873 3.46753 7.12956C3.4692 8.00456 4.12336 8.75706 4.9892 8.8779C5.3317 8.9254 5.5692 9.24123 5.5217 9.58373C5.47753 9.89623 5.21003 10.1221 4.90337 10.1221C4.87503 10.1221 4.84587 10.1204 4.8167 10.1162C3.33753 9.90873 2.22086 8.6254 2.21753 7.13123C2.21753 5.64373 3.2817 4.3904 4.7467 4.14956C5.09753 4.09456 5.40837 4.3254 5.46503 4.66456Z" fill="#505050"/>
</svg>
