<svg width="24" height="23" viewBox="0 0 24 23" fill="none" xmlns="http://www.w3.org/2000/svg">
<path d="M7.81828 20.1352C16.3093 20.1352 20.9527 13.3938 20.9527 7.54808C20.9527 7.35661 20.9485 7.16593 20.9396 6.97631C21.8409 6.3518 22.6242 5.57248 23.2423 4.68543C22.4152 5.03791 21.5249 5.27487 20.5913 5.38207C21.5443 4.83418 22.2761 3.96783 22.6212 2.93506C21.7293 3.44182 20.7414 3.80998 19.6899 4.00884C18.8476 3.14895 17.6481 2.61121 16.3202 2.61121C13.771 2.61121 11.7036 4.59234 11.7036 7.03446C11.7036 7.38179 11.7442 7.71937 11.8233 8.04323C7.9867 7.85822 4.58446 6.09796 2.30791 3.42112C1.91163 4.07477 1.68294 4.83431 1.68294 5.64475C1.68294 7.17938 2.49793 8.53455 3.73714 9.32706C2.9798 9.30477 2.26842 9.10553 1.64648 8.77389C1.64579 8.79248 1.64579 8.81054 1.64579 8.83032C1.64579 10.9729 3.23697 12.7617 5.3495 13.1671C4.96148 13.2682 4.55323 13.3227 4.13218 13.3227C3.83524 13.3227 3.54574 13.2947 3.26449 13.2429C3.85217 15.0007 5.55645 16.2797 7.57693 16.3156C5.9969 17.5024 4.00655 18.2093 1.84338 18.2093C1.47132 18.2093 1.10352 18.1889 0.742188 18.148C2.78524 19.4029 5.21122 20.1353 7.81842 20.1353" fill="black"/>
</svg>
